<?xml version="1.0" encoding="UTF-8" standalone="no"?>
<svg width="64px" height="64px" viewBox="0 0 64 64" version="1.1" xmlns="http://www.w3.org/2000/svg" xmlns:xlink="http://www.w3.org/1999/xlink">
    <!-- Generator: Sketch 39.1 (31720) - http://www.bohemiancoding.com/sketch -->
    <title>Group</title>
    <desc>Created with Sketch.</desc>
    <defs></defs>
    <g id="Page-1" stroke="none" stroke-width="1" fill="none" fill-rule="evenodd">
        <g id="Multicolor">
            <g id="Group">
                <path d="M32,4 C47.439,4 60,16.561 60,32 C60,47.439 47.439,60 32,60 C16.561,60 4,47.439 4,32 C4,16.561 16.561,4 32,4 L32,4 Z M32,0 C14.327,0 0,14.327 0,32 C0,49.673 14.327,64 32,64 C49.673,64 64,49.673 64,32 C64,14.327 49.673,0 32,0 L32,0 L32,0 Z" id="Shape" fill="#FBEC9A"></path>
                <path d="M32,60 C16.561,60 4,47.439 4,32 C4,16.561 16.561,4 32,4 C47.439,4 60,16.561 60,32 C60,47.439 47.439,60 32,60 L32,60 Z" id="Shape" fill="#FACB1B"></path>
                <path d="M32,4 C16.561,4 4,16.561 4,32 C4,39.946 7.333,47.124 12.667,52.225 L52.225,12.667 C47.124,7.332 39.946,4 32,4 L32,4 Z" id="Shape" fill="#FBE158"></path>
                <path d="M4,32 C4,16.561 16.561,4 32,4 C39.925,4 47.086,7.315 52.185,12.625 L55.023,9.787 C49.203,3.757 41.042,0 32,0 C14.327,0 0,14.327 0,32 C0,41.042 3.757,49.203 9.787,55.022 L12.625,52.184 C7.315,47.086 4,39.925 4,32 L4,32 Z" id="Shape" fill="#FCF6C2"></path>
            </g>
        </g>
    </g>
</svg>