<?xml version="1.0" encoding="UTF-8" standalone="no"?>
<svg width="198px" height="198px" viewBox="0 0 198 198" version="1.1" xmlns="http://www.w3.org/2000/svg" xmlns:xlink="http://www.w3.org/1999/xlink">
    <!-- Generator: Sketch 39.1 (31720) - http://www.bohemiancoding.com/sketch -->
    <title>Page 1</title>
    <desc>Created with Sketch.</desc>
    <defs></defs>
    <g id="Page-1" stroke="none" stroke-width="1" fill="none" fill-rule="evenodd">
        <g transform="translate(2.000000, 3.000000)">
            <path d="M192.2466,95.6239 C192.2466,148.4349 149.4346,191.2469 96.6236,191.2469 C43.8116,191.2469 0.9996,148.4349 0.9996,95.6239 C0.9996,42.8129 43.8116,-0.0001 96.6236,-0.0001 C149.4346,-0.0001 192.2466,42.8129 192.2466,95.6239" id="Fill-1" fill="#ECE8D9"></path>
            <path d="M192.2466,95.6239 C192.2466,148.4349 149.4346,191.2469 96.6236,191.2469 C43.8116,191.2469 0.9996,148.4349 0.9996,95.6239 C0.9996,42.8129 43.8116,-0.0001 96.6236,-0.0001 C149.4346,-0.0001 192.2466,42.8129 192.2466,95.6239 L192.2466,95.6239 Z" id="Stroke-3" stroke="#F05C5C" stroke-width="6"></path>
            <path d="M164.1236,95.6239 C164.1236,132.9029 133.9026,163.1229 96.6236,163.1229 C59.3436,163.1229 29.1226,132.9029 29.1226,95.6239 C29.1226,58.3449 59.3436,28.1239 96.6236,28.1239 C133.9026,28.1239 164.1236,58.3449 164.1236,95.6239" id="Fill-5" fill="#F05C5C"></path>
            <path d="M74.6612,21.2499 L115.2172,21.2499 L122.5582,3.5619 C114.3112,1.2439 105.6122,-0.0001 96.6232,-0.0001 C85.8492,-0.0001 75.4912,1.7829 65.8282,5.0689 L74.6612,21.2499 Z" id="Fill-7" fill="#F05C5C"></path>
            <path d="M141.25,32.7499 L166.187,64.7319 L184.651,59.6459 C181.408,51.7159 177.04,44.0929 171.512,37.0029 C164.887,28.5059 157.112,21.4359 148.579,15.8349 L141.25,32.7499 Z" id="Fill-9" fill="#F05C5C"></path>
            <path d="M173.1265,92.3339 L163.2395,131.6659 L178.6035,143.0979 C182.8625,135.6639 186.1895,127.5319 188.3805,118.8129 C191.0075,108.3639 191.8035,97.8859 190.9725,87.7119 L173.1265,92.3339 Z" id="Fill-11" fill="#F05C5C"></path>
            <path d="M145.7398,154.1103 L108.6428,170.4983 L109.0748,189.6433 C117.5558,188.4313 126.0148,186.0533 134.2378,182.4223 C144.0928,178.0683 152.8458,172.2523 160.3578,165.3413 L145.7398,154.1103 Z" id="Fill-13" fill="#F05C5C"></path>
            <path d="M80.1822,170.4989 L44.4482,151.3209 L29.6152,163.4349 C35.7862,169.3779 42.8622,174.5859 50.7832,178.8379 C60.2772,183.9319 70.2452,187.2599 80.3132,188.9339 L80.1822,170.4989 Z" id="Fill-15" fill="#F05C5C"></path>
            <path d="M26.9468,128.8778 L20.0978,88.9038 L1.4238,84.6558 C0.5308,93.1778 0.7758,101.9598 2.2928,110.8198 C4.1138,121.4408 7.6188,131.3468 12.4898,140.3158 L26.9468,128.8778 Z" id="Fill-17" fill="#F05C5C"></path>
            <path d="M27.0347,61.3026 L54.3467,31.3216 L46.2137,13.9836 C38.9447,18.5196 32.1697,24.1126 26.1147,30.7576 C18.8597,38.7226 13.2037,47.5786 9.1257,56.9356 L27.0347,61.3026 Z" id="Fill-19" fill="#F05C5C"></path>
        </g>
    </g>
</svg>